<svg xmlns="http://www.w3.org/2000/svg" xmlns:xlink="http://www.w3.org/1999/xlink" width="100" zoomAndPan="magnify" viewBox="0 0 75 74.999997" height="100" preserveAspectRatio="xMidYMid meet" version="1.0"><defs><clipPath id="0585d7c87b"><path d="M 1.203125 39 L 73.953125 39 L 73.953125 74.101562 L 1.203125 74.101562 Z M 1.203125 39 " clip-rule="nonzero"/></clipPath><clipPath id="2bd8abfdc6"><path d="M 73 43 L 73.953125 43 L 73.953125 44 L 73 44 Z M 73 43 " clip-rule="nonzero"/></clipPath><clipPath id="6c92431c37"><path d="M 70 36 L 73.953125 36 L 73.953125 40 L 70 40 Z M 70 36 " clip-rule="nonzero"/></clipPath><clipPath id="f0fe547689"><path d="M 71 36 L 73.953125 36 L 73.953125 39 L 71 39 Z M 71 36 " clip-rule="nonzero"/></clipPath><clipPath id="7a71bfc195"><path d="M 71 37 L 73.953125 37 L 73.953125 39 L 71 39 Z M 71 37 " clip-rule="nonzero"/></clipPath><clipPath id="a13c2f066f"><path d="M 31 0.601562 L 35 0.601562 L 35 4 L 31 4 Z M 31 0.601562 " clip-rule="nonzero"/></clipPath></defs><path fill="#0a4570" d="M 18.652344 40.695312 C 19.308594 45.394531 20.8125 50.023438 23.433594 54.007812 C 23.644531 54.488281 24.527344 55.234375 24.414062 55.679688 C 23.882812 57.019531 22.320312 57.40625 21.136719 57.972656 C 14.976562 61.046875 17.011719 66.527344 23.710938 65.183594 C 25.089844 64.910156 25.433594 65.773438 26.742188 65.261719 C 27.757812 64.859375 29.113281 67.242188 30.128906 66.839844 C 33.445312 66.671875 36.46875 69.566406 39.242188 71.003906 C 39.351562 69.976562 39 67.367188 43.191406 66.40625 C 45.046875 65.980469 46.15625 62.636719 49.140625 62.246094 C 50.253906 56.203125 40.015625 47.855469 33.769531 44.667969 C 25.511719 40.457031 33.363281 18.332031 19.792969 16.4375 C 15.933594 17.933594 16.082031 22.722656 16.9375 26.101562 C 17.988281 31.445312 17.605469 35.351562 18.65625 40.695312 Z M 18.652344 40.695312 " fill-opacity="1" fill-rule="nonzero"/><path fill="#0086ff" d="M 30.257812 59.921875 C 28.855469 61.558594 22.457031 65.382812 17.253906 62.957031 C 16.945312 62.289062 16.910156 61.515625 17.136719 60.792969 C 18.167969 57.015625 14.546875 57.273438 14.835938 54.210938 C 14.855469 53.996094 14.777344 53.785156 14.621094 53.636719 C 12.714844 51.84375 14.023438 51.285156 14.003906 49.46875 C 13.691406 46.863281 10.734375 47.082031 9.164062 45.40625 C 7.039062 42.375 15.136719 39.1875 13.488281 30.761719 C 12.820312 26.550781 14.164062 22.265625 17.035156 19.113281 C 32.960938 28.347656 17.683594 36.085938 19.574219 42.855469 C 21.609375 50.160156 40.636719 47.828125 30.257812 59.921875 Z M 30.257812 59.921875 " fill-opacity="1" fill-rule="nonzero"/><path fill="#2fc0f2" d="M 42.347656 63.992188 L 29.199219 66.40625 L 25.6875 64.769531 C 21.84375 66.5625 16.246094 65.183594 17.136719 60.796875 C 18.171875 57.019531 14.546875 57.269531 14.835938 54.210938 C 14.632812 53 12.945312 52.761719 13.789062 50.777344 C 15.09375 47.4375 10.976562 47.132812 9.164062 45.40625 C 7.003906 42.445312 15.128906 39.207031 13.488281 30.761719 C 12.820312 26.550781 14.164062 22.265625 17.035156 19.113281 L 17.390625 19.324219 C 20.113281 18.691406 26.011719 22.761719 25.339844 32.242188 C 24.714844 45.425781 26.984375 45.863281 34.171875 49.054688 C 39.335938 51.347656 43.460938 57.398438 42.347656 63.992188 Z M 42.347656 63.992188 " fill-opacity="1" fill-rule="nonzero"/><path fill="#0a4570" d="M 38.378906 64.542969 C 38.25 67.804688 37.496094 70.546875 37.679688 71 C 37.753906 71.183594 37.808594 71.347656 37.851562 71.496094 C 37.066406 71.757812 36.285156 72.003906 35.507812 72.226562 C 34.089844 71.625 32.574219 70.628906 32.574219 70.570312 C 30.828125 67.6875 30.40625 67.023438 29.222656 66.367188 C 28.507812 65.96875 27.519531 65.574219 25.796875 64.699219 C 25.796875 64.699219 35.542969 61.800781 37.28125 57.730469 C 38.265625 59.867188 38.464844 62.324219 38.378906 64.542969 Z M 38.378906 64.542969 " fill-opacity="0.3" fill-rule="nonzero"/><path fill="#ffffff" d="M 30.257812 59.921875 C 28.832031 61.902344 21.269531 65.289062 17.253906 62.957031 C 16.945312 62.289062 16.910156 61.515625 17.136719 60.792969 C 18.175781 57.035156 14.546875 57.261719 14.835938 54.210938 C 14.855469 53.996094 14.777344 53.785156 14.621094 53.636719 C 12.710938 51.839844 14.023438 51.285156 14.003906 49.46875 C 13.691406 46.863281 10.734375 47.082031 9.164062 45.40625 C 7.035156 42.382812 15.140625 39.179688 13.488281 30.761719 C 12.816406 26.546875 14.175781 22.25 17.035156 19.113281 C 32.960938 28.347656 17.683594 36.085938 19.574219 42.855469 C 21.609375 50.160156 40.636719 47.828125 30.257812 59.921875 Z M 30.257812 59.921875 " fill-opacity="0.4" fill-rule="nonzero"/><path fill="#ffffff" d="M 24.636719 61.335938 C 22.542969 63.484375 20.316406 64.496094 17.253906 62.960938 C 16.945312 62.292969 16.910156 61.515625 17.136719 60.796875 C 18.171875 57.015625 14.546875 57.273438 14.835938 54.210938 C 14.855469 53.996094 14.777344 53.785156 14.621094 53.636719 C 12.703125 51.820312 14.027344 51.296875 14.003906 49.472656 C 13.742188 46.910156 10.625 47.011719 9.164062 45.40625 C 8.429688 44.402344 8.882812 43.363281 9.738281 42.097656 C 17.226562 32.859375 10.921875 31.261719 14.644531 22.699219 C 25.023438 30.980469 12.210938 38.035156 13.953125 44.269531 C 15.992188 51.574219 35.019531 49.242188 24.636719 61.332031 Z M 24.636719 61.335938 " fill-opacity="0.3" fill-rule="nonzero"/><path fill="#ffffff" d="M 11.589844 46.871094 C 9.179688 45.917969 7.769531 44.726562 9.738281 42.097656 C 9.375 43.917969 10.144531 45.703125 11.589844 46.871094 Z M 11.589844 46.871094 " fill-opacity="0.2" fill-rule="nonzero"/><path fill="#ffffff" d="M 13.488281 30.761719 C 13.238281 29.175781 13.273438 27.578125 13.566406 26.03125 C 15.152344 28.6875 14.722656 31.214844 13.691406 33.625 C 13.742188 32.742188 13.691406 31.792969 13.488281 30.765625 Z M 13.488281 30.761719 " fill-opacity="0.39" fill-rule="nonzero"/><path fill="#0a4570" d="M 20.507812 61.335938 C 19.632812 62.15625 18.839844 62.839844 17.972656 63.261719 C 17.742188 63.171875 17.503906 63.074219 17.253906 62.960938 C 16.945312 62.292969 16.910156 61.515625 17.136719 60.796875 C 18.171875 57.015625 14.550781 57.273438 14.835938 54.210938 C 14.855469 53.996094 14.777344 53.785156 14.621094 53.636719 C 12.214844 51.613281 15.082031 50.15625 13.480469 48.140625 C 19.191406 51.277344 28.441406 52.089844 20.507812 61.335938 Z M 20.507812 61.335938 " fill-opacity="0.05" fill-rule="nonzero"/><path fill="#0a4570" d="M 65.101562 33.675781 C 65.089844 34.152344 65.070312 34.628906 65.035156 35.105469 C 64.523438 41.542969 62.09375 47.09375 58.484375 52.722656 C 57.613281 54.402344 55.953125 55.328125 56.011719 58.269531 L 55.21875 58.414062 C 55.09375 54.925781 57.027344 53.925781 58.085938 51.847656 C 60.472656 48.046875 62.148438 44.535156 63.273438 40.484375 C 63.359375 40.15625 63.445312 39.832031 63.519531 39.507812 C 64.179688 36.726562 64.445312 34.007812 64.210938 31.203125 C 62.996094 14.6875 43.347656 5.878906 28.757812 11.398438 C 21.210938 14.445312 12.476562 21.386719 13.851562 30.460938 C 14.9375 37.269531 11.425781 40.0625 9.214844 43.777344 C 8.519531 46.652344 14.300781 46.042969 14.402344 49.421875 C 14.535156 51.15625 13.113281 51.734375 14.90625 53.347656 C 15.734375 54.402344 14.597656 55.398438 16.351562 56.699219 C 18.910156 58.945312 16.835938 60.871094 17.621094 62.792969 C 20.386719 67.242188 24.164062 63.574219 27.867188 65.34375 C 27.867188 65.34375 30.890625 66.75 30.890625 66.75 L 30.546875 67.476562 C 30.546875 67.476562 27.523438 66.070312 27.523438 66.070312 C 26.441406 65.5625 25.195312 65.4375 24.023438 65.710938 C 20.933594 66.445312 18.289062 65.589844 16.886719 63.125 C 15.9375 61.1875 17.964844 59.074219 15.867188 57.339844 C 14.972656 56.675781 14.488281 55.808594 14.425781 54.757812 C 14.367188 54.496094 14.539062 54.144531 14.339844 53.921875 C 13.515625 53.113281 13.035156 52.378906 13.199219 51.3125 C 13.304688 50.742188 13.71875 50.109375 13.601562 49.515625 C 13.355469 46.558594 7.238281 47.132812 8.472656 43.460938 C 8.742188 42.832031 9.25 42.15625 9.835938 41.375 C 16.730469 33.871094 9.285156 26.839844 16.734375 18.84375 C 22.476562 12.652344 29.265625 9.121094 37.480469 8.9375 C 51.601562 8.453125 65.589844 18.875 65.097656 33.675781 Z M 65.101562 33.675781 " fill-opacity="1" fill-rule="nonzero"/><path fill="#0086ff" d="M 49.570312 54.085938 C 49.570312 54.085938 43.945312 49.75 43.945312 49.75 C 43.941406 49.75 37.347656 39.761719 37.34375 39.753906 C 36.023438 36.308594 33.621094 29.257812 32.609375 25.722656 L 32.308594 25.683594 L 32.507812 25.539062 L 27.542969 18.546875 L 23.003906 13.980469 L 23.273438 13.796875 L 27.789062 18.339844 C 27.796875 18.351562 32.757812 25.339844 32.769531 25.351562 L 41.132812 19.355469 L 42.089844 26.746094 L 43.664062 32.101562 C 45.957031 28.917969 50.332031 22.257812 52.394531 18.898438 L 58.382812 26.488281 L 54.386719 30.4375 L 49.992188 36.453125 L 55.816406 42.355469 C 55.816406 42.355469 49.570312 54.085938 49.570312 54.085938 Z M 44.183594 49.53125 L 49.464844 53.601562 L 55.417969 42.414062 L 49.570312 36.488281 L 54.148438 30.21875 L 57.949219 26.464844 L 52.425781 19.457031 C 50.339844 22.871094 45.878906 29.582031 43.542969 32.839844 L 41.804688 26.921875 L 32.960938 25.769531 C 33.957031 29.253906 36.332031 36.210938 37.632812 39.609375 C 37.632812 39.609375 44.1875 49.527344 44.1875 49.527344 Z M 33.15625 25.46875 L 41.742188 26.59375 L 40.882812 19.929688 Z M 33.15625 25.46875 " fill-opacity="1" fill-rule="nonzero"/><path fill="#0086ff" d="M 43.816406 32.632812 L 34.421875 32.632812 L 42.015625 26.5 Z M 35.332031 32.3125 L 43.386719 32.3125 L 41.84375 27.054688 Z M 35.332031 32.3125 " fill-opacity="1" fill-rule="nonzero"/><path fill="#0086ff" d="M 45.789062 42.625 L 37.210938 39.761719 L 43.695312 32.113281 Z M 37.761719 39.605469 L 45.367188 42.144531 L 43.507812 32.832031 L 37.765625 39.605469 Z M 37.761719 39.605469 " fill-opacity="1" fill-rule="nonzero"/><path fill="#0086ff" d="M 49.789062 36.632812 L 49.765625 36.3125 L 59.609375 35.636719 L 54.152344 30.449219 L 54.371094 30.21875 L 60.359375 35.90625 Z M 49.789062 36.632812 " fill-opacity="1" fill-rule="nonzero"/><path fill="#0086ff" d="M 32.574219 25.554688 L 34.300781 14.382812 L 34.621094 14.429688 L 32.890625 25.601562 Z M 32.574219 25.554688 " fill-opacity="1" fill-rule="nonzero"/><path fill="#0086ff" d="M 59.019531 55.953125 L 49.394531 53.980469 L 45.617188 42.992188 L 44.222656 49.671875 L 43.90625 49.605469 L 45.464844 42.144531 L 44.632812 42.113281 L 49.535156 36.503906 L 43.183594 32.390625 L 53.859375 30.25 L 48.007812 26.199219 L 41.949219 26.933594 L 41.910156 26.617188 L 48.089844 25.867188 L 54.664062 30.414062 L 44.019531 32.546875 L 50.023438 36.433594 L 45.320312 41.816406 L 45.53125 41.824219 L 45.539062 41.773438 L 45.558594 41.824219 L 55.746094 42.226562 L 59.019531 55.949219 Z M 49.640625 53.703125 L 58.585938 55.539062 L 55.488281 42.539062 L 45.667969 42.152344 Z M 49.640625 53.703125 " fill-opacity="1" fill-rule="nonzero"/><path fill="#0086ff" d="M 66.617188 44.175781 L 55.34375 42.507812 L 59.816406 35.738281 L 58.03125 26.628906 L 47.984375 26.195312 C 44.78125 23.144531 38.023438 17.273438 34.5 14.640625 L 34.46875 14.6875 L 34.417969 14.617188 L 27.433594 18.769531 L 29.792969 7.699219 L 34.453125 14.117188 L 39.21875 6.679688 L 45.753906 14.03125 L 41.230469 19.625 L 48.117188 25.878906 L 58.300781 26.320312 L 60.160156 35.800781 L 55.890625 42.261719 L 66.667969 43.855469 C 66.667969 43.855469 66.621094 44.171875 66.621094 44.175781 Z M 34.671875 14.371094 L 40.792969 19.265625 L 39.136719 7.398438 Z M 39.472656 7.449219 L 41.117188 19.253906 L 45.328125 14.042969 Z M 29.957031 8.476562 L 27.898438 18.117188 L 34.226562 14.355469 L 29.957031 8.472656 Z M 29.957031 8.476562 " fill-opacity="1" fill-rule="nonzero"/><path fill="#0a4570" d="M 63.269531 20.851562 L 63.105469 20.636719 L 63.628906 20.082031 C 63.765625 20.210938 64.082031 20.5 64.21875 20.628906 C 64.160156 20.695312 63.589844 21.300781 63.511719 21.382812 Z M 63.269531 20.851562 " fill-opacity="0.4" fill-rule="nonzero"/><path fill="#0a4570" d="M 67.515625 34.265625 C 67.523438 34.246094 67.492188 34.074219 67.492188 34.050781 L 67.984375 34.480469 L 67.507812 34.582031 Z M 67.515625 34.265625 " fill-opacity="0.4" fill-rule="nonzero"/><path fill="#0086ff" d="M 66.515625 44.117188 L 59.695312 35.667969 L 66.765625 34.164062 L 57.933594 26.488281 L 63.640625 20.421875 L 63.875 20.640625 L 58.394531 26.464844 L 67.460938 34.34375 L 60.273438 35.875 L 66.765625 43.917969 Z M 66.515625 44.117188 " fill-opacity="1" fill-rule="nonzero"/><path fill="#0086ff" d="M 58.171875 26.636719 L 58.15625 26.316406 L 65.992188 25.886719 L 66.007812 26.203125 Z M 58.171875 26.636719 " fill-opacity="1" fill-rule="nonzero"/><path fill="#0086ff" d="M 45.445312 14.167969 L 45.636719 13.910156 L 52.507812 19.050781 L 52.3125 19.308594 Z M 45.445312 14.167969 " fill-opacity="1" fill-rule="nonzero"/><path fill="#0086ff" d="M 41 19.480469 L 52.21875 18.882812 L 52.238281 19.203125 L 41.015625 19.800781 Z M 41 19.480469 " fill-opacity="1" fill-rule="nonzero"/><path fill="#0a4570" d="M 52.8125 10.140625 L 52.8125 11.363281 L 52.085938 10.855469 L 52.003906 10.902344 L 52.003906 10.140625 Z M 52.8125 10.140625 " fill-opacity="0.4" fill-rule="nonzero"/><path fill="#0086ff" d="M 52.246094 10.382812 L 52.570312 10.382812 L 52.570312 19.179688 L 52.246094 19.179688 Z M 52.246094 10.382812 " fill-opacity="1" fill-rule="nonzero"/><path fill="#0a4570" d="M 60.082031 15.769531 C 60.082031 15.769531 59.519531 16.050781 59.519531 16.050781 L 59.230469 15.851562 L 59.3125 15.253906 C 59.398438 15.210938 59.632812 15.09375 59.71875 15.050781 C 59.824219 15.261719 59.972656 15.558594 60.082031 15.769531 Z M 60.082031 15.769531 " fill-opacity="0.4" fill-rule="nonzero"/><path fill="#0086ff" d="M 52.335938 19.039062 L 59.609375 15.378906 L 59.753906 15.664062 L 52.480469 19.324219 Z M 52.335938 19.039062 " fill-opacity="1" fill-rule="nonzero"/><path fill="#0a4570" d="M 60.082031 15.769531 C 60.082031 15.769531 59.519531 16.050781 59.519531 16.050781 L 59.230469 15.851562 C 59.257812 15.652344 59.328125 15.148438 59.355469 14.957031 L 59.585938 15.117188 L 59.71875 15.054688 L 59.84375 15.296875 L 59.984375 15.394531 L 59.929688 15.472656 C 59.929688 15.472656 60.082031 15.769531 60.082031 15.769531 Z M 60.082031 15.769531 " fill-opacity="0.4" fill-rule="nonzero"/><path fill="#0a4570" d="M 64.109375 20.746094 L 63.511719 21.382812 C 63.4375 21.214844 63.242188 20.761719 63.105469 20.636719 L 63.628906 20.082031 C 63.714844 20.15625 63.910156 20.339844 63.964844 20.433594 C 63.964844 20.433594 64.109375 20.746094 64.109375 20.746094 Z M 64.109375 20.746094 " fill-opacity="0.4" fill-rule="nonzero"/><path fill="#0086ff" d="M 58.933594 55.839844 L 58.667969 55.65625 L 66.703125 44.082031 L 66.949219 34.265625 L 65.714844 25.621094 L 63.476562 20.726562 L 59.789062 15.921875 L 58.324219 26.496094 L 58.003906 26.453125 L 59.574219 15.113281 C 59.582031 15.132812 63.761719 20.554688 63.761719 20.574219 C 63.761719 20.574219 66.027344 25.53125 66.027344 25.53125 C 66.03125 25.542969 67.265625 34.226562 67.273438 34.246094 C 67.273438 34.257812 67.023438 44.171875 67.019531 44.1875 C 67.007812 44.207031 58.953125 55.8125 58.933594 55.835938 Z M 58.933594 55.839844 " fill-opacity="1" fill-rule="nonzero"/><path fill="#0a4570" d="M 52.8125 10.382812 L 52.8125 11.363281 L 52.085938 10.855469 L 52.003906 10.902344 L 52.003906 10.140625 L 52.46875 10.140625 Z M 52.8125 10.382812 " fill-opacity="0.4" fill-rule="nonzero"/><path fill="#0a4570" d="M 59.984375 15.394531 L 59.929688 15.46875 C 59.929688 15.46875 59.519531 16.050781 59.519531 16.050781 L 59.230469 15.851562 C 59.257812 15.652344 59.324219 15.148438 59.355469 14.957031 C 59.539062 15.082031 59.800781 15.265625 59.984375 15.394531 Z M 59.984375 15.394531 " fill-opacity="0.4" fill-rule="nonzero"/><path fill="#0086ff" d="M 59.457031 15.714844 L 52.101562 10.570312 L 45.621094 14.179688 L 45.460938 13.898438 L 52.121094 10.195312 L 59.644531 15.453125 Z M 59.457031 15.714844 " fill-opacity="1" fill-rule="nonzero"/><path fill="#0086ff" d="M 23.078125 14.054688 L 20.839844 12.402344 C 20.839844 12.402344 29.828125 7.933594 29.828125 7.933594 L 39.25 6.78125 C 39.300781 6.78125 52.105469 10.226562 52.152344 10.230469 L 52.070312 10.539062 L 39.226562 7.109375 L 29.921875 8.246094 L 21.453125 12.457031 L 23.269531 13.796875 Z M 23.078125 14.054688 " fill-opacity="1" fill-rule="nonzero"/><path fill="#0a4570" d="M 23.476562 65.011719 C 28.003906 63.714844 32.792969 62.265625 36.375 59.09375 C 32.9375 62.496094 28.191406 64.21875 23.691406 65.78125 Z M 23.476562 65.011719 " fill-opacity="1" fill-rule="nonzero"/><g clip-path="url(#0585d7c87b)"><path fill="#2fc0f2" d="M 73.71875 43.710938 C 70.09375 48.773438 66.027344 53.292969 61.871094 57.046875 C 54.015625 64.128906 45.710938 68.851562 37.851562 71.496094 C 37.066406 71.757812 36.285156 72.003906 35.507812 72.226562 C 10.421875 79.441406 -9.09375 65.292969 7.183594 39.511719 C -4.992188 62.273438 9.988281 68.925781 29.222656 66.367188 C 32.203125 65.972656 35.28125 65.351562 38.378906 64.542969 C 52.488281 60.84375 66.949219 53.089844 73.71875 43.710938 Z M 73.71875 43.710938 " fill-opacity="1" fill-rule="nonzero"/></g><g clip-path="url(#2bd8abfdc6)"><path fill="#0a4570" d="M 73.945312 43.398438 C 73.945312 43.398438 73.941406 43.402344 73.941406 43.402344 C 73.941406 43.402344 73.941406 43.398438 73.941406 43.398438 Z M 73.945312 43.398438 " fill-opacity="0.3" fill-rule="nonzero"/></g><path fill="#fe2860" d="M 32.730469 23.671875 C 35.246094 23.714844 35.246094 27.4375 32.730469 27.480469 C 30.210938 27.4375 30.214844 23.714844 32.730469 23.671875 Z M 32.730469 23.671875 " fill-opacity="0.2" fill-rule="nonzero"/><path fill="#fe2860" d="M 32.730469 26.996094 C 30.859375 26.988281 30.859375 24.164062 32.730469 24.152344 C 34.601562 24.164062 34.601562 26.988281 32.730469 26.996094 Z M 32.730469 26.996094 " fill-opacity="0.4" fill-rule="nonzero"/><path fill="#fe2860" d="M 32.730469 26.519531 C 31.5 26.535156 31.503906 24.617188 32.730469 24.636719 C 33.957031 24.621094 33.957031 26.535156 32.730469 26.519531 Z M 32.730469 26.519531 " fill-opacity="0.6" fill-rule="nonzero"/><path fill="#ffffff" d="M 32.730469 26.035156 C 32.128906 26.042969 32.128906 25.109375 32.730469 25.117188 C 33.332031 25.109375 33.332031 26.042969 32.730469 26.035156 Z M 32.730469 26.035156 " fill-opacity="1" fill-rule="nonzero"/><path fill="#fe2860" d="M 41.929688 25.835938 C 43.15625 25.820312 43.15625 27.738281 41.929688 27.71875 C 40.699219 27.734375 40.699219 25.816406 41.929688 25.835938 Z M 41.929688 25.835938 " fill-opacity="0.2" fill-rule="nonzero"/><path fill="#fe2860" d="M 41.929688 27.480469 C 41.011719 27.496094 41.011719 26.0625 41.929688 26.074219 C 42.847656 26.0625 42.847656 27.496094 41.929688 27.480469 Z M 41.929688 27.480469 " fill-opacity="0.4" fill-rule="nonzero"/><path fill="#fe2860" d="M 41.929688 27.242188 C 41.320312 27.25 41.320312 26.304688 41.929688 26.3125 C 42.535156 26.304688 42.535156 27.25 41.929688 27.242188 Z M 41.929688 27.242188 " fill-opacity="0.6" fill-rule="nonzero"/><path fill="#ffffff" d="M 41.929688 27.007812 C 41.632812 27.011719 41.632812 26.546875 41.929688 26.550781 C 42.226562 26.546875 42.226562 27.011719 41.929688 27.007812 Z M 41.929688 27.007812 " fill-opacity="1" fill-rule="nonzero"/><path fill="#fe2860" d="M 43.601562 31.484375 C 44.980469 31.492188 44.980469 33.574219 43.601562 33.582031 C 42.222656 33.574219 42.222656 31.492188 43.601562 31.484375 Z M 43.601562 31.484375 " fill-opacity="0.2" fill-rule="nonzero"/><path fill="#fe2860" d="M 43.601562 33.316406 C 42.578125 33.332031 42.578125 31.734375 43.601562 31.75 C 44.625 31.734375 44.625 33.332031 43.601562 33.316406 Z M 43.601562 33.316406 " fill-opacity="0.4" fill-rule="nonzero"/><path fill="#fe2860" d="M 43.601562 33.050781 C 42.925781 33.0625 42.925781 32.003906 43.601562 32.015625 C 44.277344 32.007812 44.277344 33.0625 43.601562 33.050781 Z M 43.601562 33.050781 " fill-opacity="0.6" fill-rule="nonzero"/><path fill="#ffffff" d="M 43.601562 32.789062 C 43.269531 32.792969 43.269531 32.277344 43.601562 32.28125 C 43.933594 32.277344 43.933594 32.792969 43.601562 32.789062 Z M 43.601562 32.789062 " fill-opacity="1" fill-rule="nonzero"/><path fill="#fe2860" d="M 34.644531 31.601562 C 35.859375 31.585938 35.859375 33.480469 34.644531 33.464844 C 33.429688 33.480469 33.429688 31.585938 34.644531 31.601562 Z M 34.644531 31.601562 " fill-opacity="0.2" fill-rule="nonzero"/><path fill="#fe2860" d="M 34.644531 33.230469 C 33.734375 33.242188 33.734375 31.824219 34.644531 31.835938 C 35.554688 31.824219 35.554688 33.242188 34.644531 33.230469 Z M 34.644531 33.230469 " fill-opacity="0.4" fill-rule="nonzero"/><path fill="#fe2860" d="M 34.644531 32.992188 C 34.042969 33 34.042969 32.066406 34.644531 32.074219 C 35.246094 32.066406 35.246094 33 34.644531 32.992188 Z M 34.644531 32.992188 " fill-opacity="0.6" fill-rule="nonzero"/><path fill="#ffffff" d="M 34.644531 32.757812 C 34.351562 32.761719 34.351562 32.304688 34.644531 32.308594 C 34.9375 32.304688 34.9375 32.761719 34.644531 32.757812 Z M 34.644531 32.757812 " fill-opacity="1" fill-rule="nonzero"/><path fill="#fe2860" d="M 54.261719 29.183594 C 55.777344 29.1875 55.777344 31.476562 54.261719 31.484375 C 52.746094 31.476562 52.746094 29.1875 54.261719 29.183594 Z M 54.261719 29.183594 " fill-opacity="0.2" fill-rule="nonzero"/><path fill="#fe2860" d="M 54.261719 31.195312 C 53.140625 31.210938 53.140625 29.457031 54.261719 29.472656 C 55.386719 29.457031 55.386719 31.210938 54.261719 31.195312 Z M 54.261719 31.195312 " fill-opacity="0.4" fill-rule="nonzero"/><path fill="#fe2860" d="M 54.261719 30.902344 C 53.519531 30.914062 53.519531 29.753906 54.261719 29.765625 C 55.003906 29.753906 55.007812 30.914062 54.261719 30.902344 Z M 54.261719 30.902344 " fill-opacity="0.6" fill-rule="nonzero"/><path fill="#ffffff" d="M 54.261719 30.613281 C 53.898438 30.617188 53.898438 30.050781 54.261719 30.054688 C 54.625 30.050781 54.625 30.617188 54.261719 30.613281 Z M 54.261719 30.613281 " fill-opacity="1" fill-rule="nonzero"/><path fill="#fe2860" d="M 58.164062 24.417969 C 60.882812 24.464844 60.882812 28.488281 58.164062 28.535156 C 55.445312 28.488281 55.445312 24.464844 58.164062 24.417969 Z M 58.164062 24.417969 " fill-opacity="0.2" fill-rule="nonzero"/><path fill="#fe2860" d="M 58.164062 28.011719 C 56.132812 27.976562 56.132812 24.972656 58.164062 24.9375 C 60.195312 24.972656 60.195312 27.976562 58.164062 28.011719 Z M 58.164062 28.011719 " fill-opacity="0.4" fill-rule="nonzero"/><path fill="#fe2860" d="M 58.164062 27.492188 C 56.828125 27.488281 56.828125 25.46875 58.164062 25.460938 C 59.503906 25.46875 59.503906 27.488281 58.164062 27.492188 Z M 58.164062 27.492188 " fill-opacity="0.6" fill-rule="nonzero"/><path fill="#ffffff" d="M 58.164062 26.972656 C 57.515625 26.984375 57.515625 25.96875 58.164062 25.976562 C 58.8125 25.96875 58.8125 26.984375 58.164062 26.972656 Z M 58.164062 26.972656 " fill-opacity="1" fill-rule="nonzero"/><path fill="#fe2860" d="M 67.226562 33.28125 C 68.566406 33.289062 68.566406 35.308594 67.226562 35.316406 C 65.890625 35.308594 65.890625 33.289062 67.226562 33.28125 Z M 67.226562 33.28125 " fill-opacity="0.2" fill-rule="nonzero"/><path fill="#fe2860" d="M 67.226562 35.058594 C 66.234375 35.074219 66.234375 33.523438 67.226562 33.539062 C 68.222656 33.523438 68.222656 35.074219 67.226562 35.058594 Z M 67.226562 35.058594 " fill-opacity="0.4" fill-rule="nonzero"/><path fill="#fe2860" d="M 67.226562 34.800781 C 66.570312 34.8125 66.570312 33.789062 67.226562 33.796875 C 67.886719 33.789062 67.886719 34.8125 67.226562 34.800781 Z M 67.226562 34.800781 " fill-opacity="0.6" fill-rule="nonzero"/><path fill="#ffffff" d="M 67.226562 34.546875 C 66.90625 34.550781 66.90625 34.046875 67.226562 34.054688 C 67.546875 34.046875 67.550781 34.550781 67.226562 34.546875 Z M 67.226562 34.546875 " fill-opacity="1" fill-rule="nonzero"/><path fill="#fe2860" d="M 49.777344 34.933594 C 51.8125 34.96875 51.8125 37.972656 49.777344 38.007812 C 47.746094 37.976562 47.746094 34.96875 49.777344 34.933594 Z M 49.777344 34.933594 " fill-opacity="0.2" fill-rule="nonzero"/><path fill="#fe2860" d="M 49.777344 37.621094 C 48.269531 37.613281 48.269531 35.332031 49.777344 35.324219 C 51.289062 35.332031 51.289062 37.613281 49.777344 37.621094 Z M 49.777344 37.621094 " fill-opacity="0.4" fill-rule="nonzero"/><path fill="#fe2860" d="M 49.777344 37.230469 C 48.785156 37.246094 48.785156 35.699219 49.777344 35.710938 C 50.769531 35.699219 50.769531 37.246094 49.777344 37.230469 Z M 49.777344 37.230469 " fill-opacity="0.6" fill-rule="nonzero"/><path fill="#ffffff" d="M 49.777344 36.84375 C 49.292969 36.851562 49.292969 36.09375 49.777344 36.101562 C 50.265625 36.09375 50.265625 36.851562 49.777344 36.84375 Z M 49.777344 36.84375 " fill-opacity="1" fill-rule="nonzero"/><path fill="#fe2860" d="M 66.863281 42.9375 C 68.4375 42.945312 68.4375 45.324219 66.863281 45.332031 C 65.289062 45.324219 65.289062 42.945312 66.863281 42.9375 Z M 66.863281 42.9375 " fill-opacity="0.2" fill-rule="nonzero"/><path fill="#fe2860" d="M 66.863281 45.027344 C 65.695312 45.046875 65.695312 43.222656 66.863281 43.238281 C 68.03125 43.222656 68.03125 45.042969 66.863281 45.027344 Z M 66.863281 45.027344 " fill-opacity="0.4" fill-rule="nonzero"/><path fill="#fe2860" d="M 66.863281 44.726562 C 66.089844 44.738281 66.089844 43.53125 66.863281 43.542969 C 67.636719 43.53125 67.636719 44.738281 66.863281 44.726562 Z M 66.863281 44.726562 " fill-opacity="0.6" fill-rule="nonzero"/><path fill="#ffffff" d="M 66.863281 44.425781 C 66.484375 44.429688 66.484375 43.839844 66.863281 43.84375 C 67.242188 43.839844 67.242188 44.429688 66.863281 44.425781 Z M 66.863281 44.425781 " fill-opacity="1" fill-rule="nonzero"/><path fill="#fe2860" d="M 41.058594 18.003906 C 43.09375 18.035156 43.09375 21.042969 41.058594 21.078125 C 39.027344 21.042969 39.027344 18.035156 41.058594 18.003906 Z M 41.058594 18.003906 " fill-opacity="0.2" fill-rule="nonzero"/><path fill="#fe2860" d="M 41.058594 20.6875 C 39.546875 20.679688 39.546875 18.398438 41.058594 18.390625 C 42.570312 18.398438 42.570312 20.679688 41.058594 20.6875 Z M 41.058594 20.6875 " fill-opacity="0.4" fill-rule="nonzero"/><path fill="#fe2860" d="M 41.058594 20.300781 C 40.066406 20.3125 40.066406 18.765625 41.058594 18.78125 C 42.050781 18.765625 42.050781 20.3125 41.058594 20.300781 Z M 41.058594 20.300781 " fill-opacity="0.6" fill-rule="nonzero"/><path fill="#ffffff" d="M 41.058594 19.910156 C 40.574219 19.917969 40.574219 19.160156 41.058594 19.167969 C 41.542969 19.160156 41.542969 19.917969 41.058594 19.910156 Z M 41.058594 19.910156 " fill-opacity="1" fill-rule="nonzero"/><path fill="#fe2860" d="M 45.355469 3.570312 C 47.386719 3.605469 47.386719 6.609375 45.355469 6.644531 C 43.320312 6.609375 43.320312 3.601562 45.355469 3.570312 Z M 45.355469 3.570312 " fill-opacity="0.2" fill-rule="nonzero"/><path fill="#fe2860" d="M 45.355469 6.257812 C 43.84375 6.246094 43.84375 3.964844 45.355469 3.957031 C 46.867188 3.964844 46.867188 6.246094 45.355469 6.257812 Z M 45.355469 6.257812 " fill-opacity="0.4" fill-rule="nonzero"/><path fill="#fe2860" d="M 45.355469 5.867188 C 44.363281 5.882812 44.363281 4.332031 45.355469 4.347656 C 46.347656 4.332031 46.347656 5.882812 45.355469 5.867188 Z M 45.355469 5.867188 " fill-opacity="0.6" fill-rule="nonzero"/><path fill="#ffffff" d="M 45.355469 5.480469 C 44.871094 5.484375 44.871094 4.730469 45.355469 4.734375 C 45.839844 4.730469 45.839844 5.484375 45.355469 5.480469 Z M 45.355469 5.480469 " fill-opacity="1" fill-rule="nonzero"/><path fill="#fe2860" d="M 36.125 18.285156 C 37.375 18.289062 37.375 20.179688 36.125 20.1875 C 34.871094 20.179688 34.871094 18.289062 36.125 18.285156 Z M 36.125 18.285156 " fill-opacity="0.2" fill-rule="nonzero"/><path fill="#fe2860" d="M 36.125 19.945312 C 35.195312 19.960938 35.195312 18.511719 36.125 18.523438 C 37.050781 18.511719 37.050781 19.960938 36.125 19.945312 Z M 36.125 19.945312 " fill-opacity="0.4" fill-rule="nonzero"/><path fill="#fe2860" d="M 36.125 19.707031 C 35.511719 19.714844 35.511719 18.753906 36.125 18.765625 C 36.738281 18.753906 36.738281 19.714844 36.125 19.707031 Z M 36.125 19.707031 " fill-opacity="0.6" fill-rule="nonzero"/><path fill="#ffffff" d="M 36.125 19.464844 C 35.824219 19.46875 35.824219 19 36.125 19.003906 C 36.425781 19 36.425781 19.46875 36.125 19.464844 Z M 36.125 19.464844 " fill-opacity="1" fill-rule="nonzero"/><path fill="#fe2860" d="M 54.09375 15.542969 C 54.738281 15.535156 54.738281 16.539062 54.09375 16.527344 C 53.449219 16.539062 53.449219 15.535156 54.09375 15.542969 Z M 54.09375 15.542969 " fill-opacity="0.2" fill-rule="nonzero"/><path fill="#fe2860" d="M 54.09375 16.402344 C 53.613281 16.410156 53.613281 15.660156 54.09375 15.667969 C 54.574219 15.660156 54.574219 16.410156 54.09375 16.402344 Z M 54.09375 16.402344 " fill-opacity="0.4" fill-rule="nonzero"/><path fill="#fe2860" d="M 54.09375 16.28125 C 53.777344 16.285156 53.777344 15.789062 54.09375 15.792969 C 54.410156 15.789062 54.410156 16.285156 54.09375 16.28125 Z M 54.09375 16.28125 " fill-opacity="0.6" fill-rule="nonzero"/><path fill="#ffffff" d="M 54.09375 16.15625 C 53.9375 16.15625 53.9375 15.914062 54.09375 15.917969 C 54.25 15.914062 54.25 16.15625 54.09375 16.15625 Z M 54.09375 16.15625 " fill-opacity="1" fill-rule="nonzero"/><g clip-path="url(#6c92431c37)"><path fill="#fe2860" d="M 72.394531 36.242188 C 74.429688 36.277344 74.429688 39.285156 72.394531 39.316406 C 70.363281 39.28125 70.363281 36.277344 72.394531 36.242188 Z M 72.394531 36.242188 " fill-opacity="0.2" fill-rule="nonzero"/></g><g clip-path="url(#f0fe547689)"><path fill="#fe2860" d="M 72.394531 38.929688 C 70.882812 38.921875 70.882812 36.640625 72.394531 36.632812 C 73.90625 36.640625 73.90625 38.921875 72.394531 38.929688 Z M 72.394531 38.929688 " fill-opacity="0.4" fill-rule="nonzero"/></g><g clip-path="url(#7a71bfc195)"><path fill="#fe2860" d="M 72.394531 38.539062 C 71.402344 38.554688 71.402344 37.007812 72.394531 37.019531 C 73.386719 37.007812 73.386719 38.554688 72.394531 38.539062 Z M 72.394531 38.539062 " fill-opacity="0.6" fill-rule="nonzero"/></g><path fill="#ffffff" d="M 72.394531 38.152344 C 71.910156 38.160156 71.910156 37.402344 72.394531 37.410156 C 72.878906 37.402344 72.878906 38.160156 72.394531 38.152344 Z M 72.394531 38.152344 " fill-opacity="1" fill-rule="nonzero"/><path fill="#fe2860" d="M 67.203125 10.703125 C 69.234375 10.738281 69.234375 13.742188 67.203125 13.777344 C 65.167969 13.742188 65.167969 10.738281 67.203125 10.703125 Z M 67.203125 10.703125 " fill-opacity="0.2" fill-rule="nonzero"/><path fill="#fe2860" d="M 67.203125 13.386719 C 65.691406 13.378906 65.691406 11.097656 67.203125 11.089844 C 68.710938 11.097656 68.710938 13.378906 67.203125 13.386719 Z M 67.203125 13.386719 " fill-opacity="0.4" fill-rule="nonzero"/><path fill="#fe2860" d="M 67.203125 13 C 66.210938 13.015625 66.210938 11.464844 67.203125 11.480469 C 68.195312 11.464844 68.195312 13.015625 67.203125 13 Z M 67.203125 13 " fill-opacity="0.6" fill-rule="nonzero"/><path fill="#ffffff" d="M 67.203125 12.613281 C 66.714844 12.617188 66.714844 11.863281 67.203125 11.867188 C 67.6875 11.863281 67.6875 12.617188 67.203125 12.613281 Z M 67.203125 12.613281 " fill-opacity="1" fill-rule="nonzero"/><path fill="#fe2860" d="M 24.640625 5.105469 C 26.007812 5.113281 26.007812 7.179688 24.640625 7.183594 C 23.273438 7.179688 23.273438 5.113281 24.640625 5.105469 Z M 24.640625 5.105469 " fill-opacity="0.2" fill-rule="nonzero"/><path fill="#fe2860" d="M 24.640625 6.921875 C 23.628906 6.9375 23.628906 5.355469 24.640625 5.367188 C 25.65625 5.355469 25.65625 6.9375 24.640625 6.921875 Z M 24.640625 6.921875 " fill-opacity="0.4" fill-rule="nonzero"/><path fill="#fe2860" d="M 24.640625 6.660156 C 23.972656 6.667969 23.972656 5.621094 24.640625 5.632812 C 25.3125 5.621094 25.3125 6.667969 24.640625 6.660156 Z M 24.640625 6.660156 " fill-opacity="0.6" fill-rule="nonzero"/><path fill="#ffffff" d="M 24.640625 6.398438 C 24.3125 6.402344 24.3125 5.890625 24.640625 5.894531 C 24.96875 5.890625 24.96875 6.402344 24.640625 6.398438 Z M 24.640625 6.398438 " fill-opacity="1" fill-rule="nonzero"/><path fill="#fe2860" d="M 59.1875 9.492188 C 60.179688 9.480469 60.179688 11.027344 59.1875 11.015625 C 58.195312 11.03125 58.195312 9.480469 59.1875 9.492188 Z M 59.1875 9.492188 " fill-opacity="0.2" fill-rule="nonzero"/><path fill="#fe2860" d="M 59.1875 10.820312 C 58.445312 10.832031 58.445312 9.675781 59.1875 9.683594 C 59.929688 9.675781 59.929688 10.832031 59.1875 10.820312 Z M 59.1875 10.820312 " fill-opacity="0.4" fill-rule="nonzero"/><path fill="#fe2860" d="M 59.1875 10.628906 C 58.695312 10.636719 58.695312 9.871094 59.1875 9.878906 C 59.679688 9.871094 59.679688 10.636719 59.1875 10.628906 Z M 59.1875 10.628906 " fill-opacity="0.6" fill-rule="nonzero"/><path fill="#ffffff" d="M 59.1875 10.4375 C 58.949219 10.441406 58.949219 10.066406 59.1875 10.070312 C 59.425781 10.066406 59.425781 10.441406 59.1875 10.4375 Z M 59.1875 10.4375 " fill-opacity="1" fill-rule="nonzero"/><path fill="#fe2860" d="M 30.816406 29.1875 C 31.808594 29.171875 31.808594 30.722656 30.816406 30.707031 C 29.824219 30.722656 29.824219 29.171875 30.816406 29.1875 Z M 30.816406 29.1875 " fill-opacity="0.2" fill-rule="nonzero"/><path fill="#fe2860" d="M 30.816406 30.515625 C 30.074219 30.527344 30.074219 29.367188 30.816406 29.378906 C 31.558594 29.367188 31.558594 30.527344 30.816406 30.515625 Z M 30.816406 30.515625 " fill-opacity="0.4" fill-rule="nonzero"/><path fill="#fe2860" d="M 30.816406 30.324219 C 30.324219 30.328125 30.324219 29.566406 30.816406 29.570312 C 31.304688 29.566406 31.304688 30.328125 30.816406 30.324219 Z M 30.816406 30.324219 " fill-opacity="0.6" fill-rule="nonzero"/><path fill="#ffffff" d="M 30.816406 30.132812 C 30.574219 30.132812 30.574219 29.761719 30.816406 29.765625 C 31.054688 29.761719 31.054688 30.132812 30.816406 30.132812 Z M 30.816406 30.132812 " fill-opacity="1" fill-rule="nonzero"/><path fill="#fe2860" d="M 38.714844 44.695312 C 39.457031 44.683594 39.457031 45.839844 38.714844 45.832031 C 37.972656 45.839844 37.972656 44.683594 38.714844 44.695312 Z M 38.714844 44.695312 " fill-opacity="0.2" fill-rule="nonzero"/><path fill="#fe2860" d="M 38.714844 45.6875 C 38.160156 45.695312 38.160156 44.828125 38.714844 44.835938 C 39.269531 44.832031 39.269531 45.695312 38.714844 45.6875 Z M 38.714844 45.6875 " fill-opacity="0.4" fill-rule="nonzero"/><path fill="#fe2860" d="M 38.714844 45.542969 C 38.347656 45.550781 38.347656 44.976562 38.714844 44.980469 C 39.082031 44.976562 39.082031 45.546875 38.714844 45.542969 Z M 38.714844 45.542969 " fill-opacity="0.6" fill-rule="nonzero"/><path fill="#ffffff" d="M 38.714844 45.398438 C 38.535156 45.402344 38.535156 45.121094 38.714844 45.125 C 38.894531 45.121094 38.894531 45.402344 38.714844 45.398438 Z M 38.714844 45.398438 " fill-opacity="1" fill-rule="nonzero"/><path fill="#fe2860" d="M 38.042969 1.347656 C 39.035156 1.332031 39.035156 2.882812 38.042969 2.867188 C 37.050781 2.882812 37.050781 1.332031 38.042969 1.347656 Z M 38.042969 1.347656 " fill-opacity="0.2" fill-rule="nonzero"/><path fill="#fe2860" d="M 38.042969 2.675781 C 37.300781 2.683594 37.300781 1.527344 38.042969 1.539062 C 38.785156 1.527344 38.785156 2.683594 38.042969 2.675781 Z M 38.042969 2.675781 " fill-opacity="0.4" fill-rule="nonzero"/><path fill="#fe2860" d="M 38.042969 2.484375 C 37.550781 2.488281 37.550781 1.722656 38.042969 1.730469 C 38.535156 1.722656 38.535156 2.488281 38.042969 2.484375 Z M 38.042969 2.484375 " fill-opacity="0.6" fill-rule="nonzero"/><path fill="#ffffff" d="M 38.042969 2.292969 C 37.804688 2.292969 37.804688 1.921875 38.042969 1.925781 C 38.28125 1.921875 38.28125 2.292969 38.042969 2.292969 Z M 38.042969 2.292969 " fill-opacity="1" fill-rule="nonzero"/><path fill="#fe2860" d="M 45.539062 12.867188 C 47.082031 12.875 47.082031 15.203125 45.539062 15.207031 C 44 15.203125 44 12.875 45.539062 12.867188 Z M 45.539062 12.867188 " fill-opacity="0.2" fill-rule="nonzero"/><path fill="#fe2860" d="M 45.539062 14.914062 C 44.398438 14.929688 44.398438 13.148438 45.539062 13.164062 C 46.683594 13.148438 46.683594 14.929688 45.539062 14.914062 Z M 45.539062 14.914062 " fill-opacity="0.4" fill-rule="nonzero"/><path fill="#fe2860" d="M 45.539062 14.617188 C 44.785156 14.628906 44.785156 13.449219 45.539062 13.460938 C 46.296875 13.449219 46.296875 14.628906 45.539062 14.617188 Z M 45.539062 14.617188 " fill-opacity="0.6" fill-rule="nonzero"/><path fill="#ffffff" d="M 45.539062 14.324219 C 45.171875 14.328125 45.171875 13.75 45.539062 13.757812 C 45.910156 13.753906 45.910156 14.328125 45.539062 14.324219 Z M 45.539062 14.324219 " fill-opacity="1" fill-rule="nonzero"/><path fill="#fe2860" d="M 59.613281 13.980469 C 61.644531 14.015625 61.644531 17.023438 59.613281 17.058594 C 57.578125 17.023438 57.578125 14.015625 59.613281 13.980469 Z M 59.613281 13.980469 " fill-opacity="0.2" fill-rule="nonzero"/><path fill="#fe2860" d="M 59.613281 16.667969 C 58.101562 16.660156 58.101562 14.378906 59.613281 14.371094 C 61.125 14.378906 61.125 16.660156 59.613281 16.667969 Z M 59.613281 16.667969 " fill-opacity="0.4" fill-rule="nonzero"/><path fill="#fe2860" d="M 59.613281 16.28125 C 58.621094 16.292969 58.621094 14.746094 59.613281 14.757812 C 60.605469 14.746094 60.605469 16.292969 59.613281 16.28125 Z M 59.613281 16.28125 " fill-opacity="0.6" fill-rule="nonzero"/><path fill="#ffffff" d="M 59.613281 15.890625 C 59.128906 15.898438 59.128906 15.140625 59.613281 15.148438 C 60.097656 15.140625 60.097656 15.898438 59.613281 15.890625 Z M 59.613281 15.890625 " fill-opacity="1" fill-rule="nonzero"/><path fill="#fe2860" d="M 63.769531 19.664062 C 65.03125 19.671875 65.03125 21.578125 63.769531 21.582031 C 62.507812 21.578125 62.507812 19.671875 63.769531 19.664062 Z M 63.769531 19.664062 " fill-opacity="0.2" fill-rule="nonzero"/><path fill="#fe2860" d="M 63.769531 21.339844 C 62.835938 21.351562 62.835938 19.894531 63.769531 19.90625 C 64.703125 19.894531 64.703125 21.351562 63.769531 21.339844 Z M 63.769531 21.339844 " fill-opacity="0.4" fill-rule="nonzero"/><path fill="#fe2860" d="M 63.769531 21.097656 C 63.152344 21.105469 63.152344 20.140625 63.769531 20.148438 C 64.386719 20.140625 64.386719 21.105469 63.769531 21.097656 Z M 63.769531 21.097656 " fill-opacity="0.6" fill-rule="nonzero"/><path fill="#ffffff" d="M 63.769531 20.855469 C 63.464844 20.859375 63.464844 20.386719 63.769531 20.390625 C 64.070312 20.386719 64.070312 20.859375 63.769531 20.855469 Z M 63.769531 20.855469 " fill-opacity="1" fill-rule="nonzero"/><path fill="#fe2860" d="M 27.621094 17.5 C 29.050781 17.503906 29.050781 19.660156 27.621094 19.667969 C 26.195312 19.660156 26.195312 17.503906 27.621094 17.5 Z M 27.621094 17.5 " fill-opacity="0.2" fill-rule="nonzero"/><path fill="#fe2860" d="M 27.621094 19.394531 C 26.566406 19.40625 26.566406 17.757812 27.621094 17.773438 C 28.679688 17.757812 28.679688 19.40625 27.621094 19.394531 Z M 27.621094 19.394531 " fill-opacity="0.4" fill-rule="nonzero"/><path fill="#fe2860" d="M 27.621094 19.121094 C 26.921875 19.128906 26.921875 18.039062 27.621094 18.046875 C 28.324219 18.039062 28.324219 19.128906 27.621094 19.121094 Z M 27.621094 19.121094 " fill-opacity="0.6" fill-rule="nonzero"/><path fill="#ffffff" d="M 27.621094 18.847656 C 27.28125 18.851562 27.28125 18.316406 27.621094 18.320312 C 27.964844 18.316406 27.964844 18.851562 27.621094 18.847656 Z M 27.621094 18.847656 " fill-opacity="1" fill-rule="nonzero"/><path fill="#fe2860" d="M 29.867188 7.207031 C 30.835938 7.191406 30.835938 8.703125 29.867188 8.691406 C 28.898438 8.703125 28.898438 7.191406 29.867188 7.207031 Z M 29.867188 7.207031 " fill-opacity="0.2" fill-rule="nonzero"/><path fill="#fe2860" d="M 29.867188 8.503906 C 29.144531 8.511719 29.144531 7.386719 29.867188 7.394531 C 30.589844 7.382812 30.589844 8.511719 29.867188 8.503906 Z M 29.867188 8.503906 " fill-opacity="0.4" fill-rule="nonzero"/><path fill="#fe2860" d="M 29.867188 8.316406 C 29.390625 8.320312 29.390625 7.574219 29.867188 7.582031 C 30.347656 7.574219 30.347656 8.324219 29.867188 8.316406 Z M 29.867188 8.316406 " fill-opacity="0.6" fill-rule="nonzero"/><path fill="#ffffff" d="M 29.867188 8.128906 C 29.632812 8.128906 29.632812 7.765625 29.867188 7.769531 C 30.101562 7.765625 30.101562 8.132812 29.867188 8.128906 Z M 29.867188 8.128906 " fill-opacity="1" fill-rule="nonzero"/><path fill="#fe2860" d="M 39.308594 5.410156 C 41.1875 5.417969 41.1875 8.261719 39.308594 8.269531 C 37.429688 8.261719 37.429688 5.417969 39.308594 5.410156 Z M 39.308594 5.410156 " fill-opacity="0.2" fill-rule="nonzero"/><path fill="#fe2860" d="M 39.308594 7.90625 C 37.902344 7.898438 37.902344 5.777344 39.308594 5.773438 C 40.710938 5.78125 40.710938 7.898438 39.308594 7.90625 Z M 39.308594 7.90625 " fill-opacity="0.4" fill-rule="nonzero"/><path fill="#fe2860" d="M 39.308594 7.546875 C 38.386719 7.558594 38.386719 6.121094 39.308594 6.132812 C 40.230469 6.121094 40.230469 7.558594 39.308594 7.546875 Z M 39.308594 7.546875 " fill-opacity="0.6" fill-rule="nonzero"/><path fill="#ffffff" d="M 39.308594 7.183594 C 38.855469 7.191406 38.855469 6.488281 39.308594 6.492188 C 39.761719 6.488281 39.761719 7.191406 39.308594 7.183594 Z M 39.308594 7.183594 " fill-opacity="1" fill-rule="nonzero"/><path fill="#fe2860" d="M 21.042969 11.65625 C 22.011719 11.644531 22.011719 13.152344 21.042969 13.140625 C 20.074219 13.152344 20.074219 11.644531 21.042969 11.65625 Z M 21.042969 11.65625 " fill-opacity="0.2" fill-rule="nonzero"/><path fill="#fe2860" d="M 21.042969 12.953125 C 20.320312 12.960938 20.320312 11.835938 21.042969 11.84375 C 21.765625 11.832031 21.765625 12.960938 21.042969 12.953125 Z M 21.042969 12.953125 " fill-opacity="0.4" fill-rule="nonzero"/><path fill="#fe2860" d="M 21.042969 12.765625 C 20.566406 12.773438 20.566406 12.023438 21.042969 12.03125 C 21.523438 12.027344 21.523438 12.773438 21.042969 12.765625 Z M 21.042969 12.765625 " fill-opacity="0.6" fill-rule="nonzero"/><path fill="#ffffff" d="M 21.042969 12.578125 C 20.808594 12.582031 20.808594 12.214844 21.042969 12.21875 C 21.277344 12.214844 21.277344 12.582031 21.042969 12.578125 Z M 21.042969 12.578125 " fill-opacity="1" fill-rule="nonzero"/><path fill="#fe2860" d="M 37.484375 37.78125 C 40.003906 37.820312 40.003906 41.542969 37.484375 41.585938 C 34.96875 41.542969 34.96875 37.820312 37.484375 37.78125 Z M 37.484375 37.78125 " fill-opacity="0.2" fill-rule="nonzero"/><path fill="#fe2860" d="M 37.484375 41.105469 C 35.613281 41.09375 35.613281 38.269531 37.484375 38.261719 C 39.355469 38.269531 39.355469 41.09375 37.484375 41.105469 Z M 37.484375 41.105469 " fill-opacity="0.4" fill-rule="nonzero"/><path fill="#fe2860" d="M 37.484375 40.625 C 36.257812 40.640625 36.257812 38.726562 37.484375 38.742188 C 38.714844 38.726562 38.714844 40.640625 37.484375 40.625 Z M 37.484375 40.625 " fill-opacity="0.6" fill-rule="nonzero"/><path fill="#ffffff" d="M 37.484375 40.144531 C 36.886719 40.152344 36.886719 39.214844 37.484375 39.222656 C 38.085938 39.214844 38.085938 40.152344 37.484375 40.144531 Z M 37.484375 40.144531 " fill-opacity="1" fill-rule="nonzero"/><path fill="#fe2860" d="M 55.617188 40.414062 C 58.222656 40.457031 58.222656 44.3125 55.617188 44.359375 C 53.007812 44.3125 53.007812 40.457031 55.617188 40.414062 Z M 55.617188 40.414062 " fill-opacity="0.2" fill-rule="nonzero"/><path fill="#fe2860" d="M 55.617188 43.777344 C 53.785156 43.765625 53.785156 41.003906 55.617188 40.996094 C 57.445312 41.003906 57.445312 43.765625 55.617188 43.777344 Z M 55.617188 43.777344 " fill-opacity="0.4" fill-rule="nonzero"/><path fill="#fe2860" d="M 55.617188 43.195312 C 54.558594 43.210938 54.558594 41.5625 55.617188 41.574219 C 56.671875 41.5625 56.671875 43.210938 55.617188 43.195312 Z M 55.617188 43.195312 " fill-opacity="0.6" fill-rule="nonzero"/><path fill="#ffffff" d="M 55.617188 42.613281 C 55.316406 42.621094 55.316406 42.152344 55.617188 42.15625 C 55.914062 42.152344 55.914062 42.617188 55.617188 42.613281 Z M 55.617188 42.613281 " fill-opacity="1" fill-rule="nonzero"/><path fill="#fe2860" d="M 58.867188 54.4375 C 60.769531 54.445312 60.769531 57.320312 58.867188 57.328125 C 56.964844 57.320312 56.964844 54.445312 58.867188 54.4375 Z M 58.867188 54.4375 " fill-opacity="0.2" fill-rule="nonzero"/><path fill="#fe2860" d="M 58.867188 56.902344 C 57.523438 56.894531 57.523438 54.871094 58.867188 54.863281 C 60.207031 54.871094 60.207031 56.894531 58.867188 56.902344 Z M 58.867188 56.902344 " fill-opacity="0.4" fill-rule="nonzero"/><path fill="#fe2860" d="M 58.867188 56.476562 C 58.089844 56.488281 58.089844 55.277344 58.867188 55.289062 C 59.640625 55.277344 59.640625 56.488281 58.867188 56.476562 Z M 58.867188 56.476562 " fill-opacity="0.6" fill-rule="nonzero"/><path fill="#ffffff" d="M 58.867188 56.050781 C 58.648438 56.054688 58.648438 55.710938 58.867188 55.714844 C 59.085938 55.710938 59.085938 56.054688 58.867188 56.050781 Z M 58.867188 56.050781 " fill-opacity="1" fill-rule="nonzero"/><path fill="#0086ff" d="M 45.339844 39.222656 C 48.984375 39.285156 48.984375 44.667969 45.339844 44.730469 C 41.699219 44.667969 41.699219 39.285156 45.339844 39.222656 Z M 45.339844 39.222656 " fill-opacity="0.2" fill-rule="nonzero"/><path fill="#0086ff" d="M 45.339844 44.140625 C 42.476562 44.089844 42.476562 39.859375 45.339844 39.8125 C 48.203125 39.863281 48.203125 44.089844 45.339844 44.140625 Z M 45.339844 44.140625 " fill-opacity="0.4" fill-rule="nonzero"/><path fill="#0086ff" d="M 45.339844 43.554688 C 43.253906 43.515625 43.257812 40.433594 45.339844 40.398438 C 47.425781 40.4375 47.425781 43.515625 45.339844 43.554688 Z M 45.339844 43.554688 " fill-opacity="0.6" fill-rule="nonzero"/><path fill="#0086ff" d="M 45.339844 42.964844 C 44.039062 42.960938 44.039062 40.996094 45.339844 40.988281 C 46.640625 40.996094 46.640625 42.960938 45.339844 42.964844 Z M 45.339844 42.964844 " fill-opacity="0.8" fill-rule="nonzero"/><path fill="#ffffff" d="M 45.339844 42.378906 C 44.816406 42.386719 44.816406 41.570312 45.339844 41.574219 C 45.863281 41.570312 45.863281 42.386719 45.339844 42.378906 Z M 45.339844 42.378906 " fill-opacity="1" fill-rule="nonzero"/><path fill="#0086ff" d="M 34.40625 13.085938 C 36.035156 13.089844 36.035156 15.554688 34.40625 15.5625 C 32.773438 15.554688 32.773438 13.089844 34.40625 13.085938 Z M 34.40625 13.085938 " fill-opacity="0.2" fill-rule="nonzero"/><path fill="#0086ff" d="M 34.40625 15.300781 C 33.121094 15.292969 33.121094 13.355469 34.40625 13.351562 C 35.6875 13.355469 35.6875 15.292969 34.40625 15.300781 Z M 34.40625 15.300781 " fill-opacity="0.4" fill-rule="nonzero"/><path fill="#0086ff" d="M 34.40625 15.035156 C 33.476562 15.046875 33.476562 13.601562 34.40625 13.613281 C 35.332031 13.601562 35.332031 15.046875 34.40625 15.035156 Z M 34.40625 15.035156 " fill-opacity="0.6" fill-rule="nonzero"/><path fill="#0086ff" d="M 34.40625 14.769531 C 33.824219 14.777344 33.824219 13.871094 34.40625 13.878906 C 34.984375 13.871094 34.984375 14.777344 34.40625 14.769531 Z M 34.40625 14.769531 " fill-opacity="0.8" fill-rule="nonzero"/><path fill="#ffffff" d="M 34.40625 14.503906 C 34.167969 14.507812 34.167969 14.140625 34.40625 14.144531 C 34.640625 14.140625 34.640625 14.507812 34.40625 14.503906 Z M 34.40625 14.503906 " fill-opacity="1" fill-rule="nonzero"/><path fill="#0086ff" d="M 48.089844 24.195312 C 50.5625 24.238281 50.5625 27.894531 48.089844 27.9375 C 45.613281 27.894531 45.613281 24.238281 48.089844 24.195312 Z M 48.089844 24.195312 " fill-opacity="0.2" fill-rule="nonzero"/><path fill="#0086ff" d="M 48.089844 27.535156 C 46.152344 27.527344 46.152344 24.605469 48.089844 24.59375 C 50.023438 24.605469 50.023438 27.527344 48.089844 27.535156 Z M 48.089844 27.535156 " fill-opacity="0.4" fill-rule="nonzero"/><path fill="#0086ff" d="M 48.089844 27.136719 C 46.679688 27.128906 46.679688 25.003906 48.089844 24.996094 C 49.5 25.003906 49.5 27.128906 48.089844 27.136719 Z M 48.089844 27.136719 " fill-opacity="0.6" fill-rule="nonzero"/><path fill="#0086ff" d="M 48.089844 26.738281 C 47.210938 26.75 47.210938 25.382812 48.089844 25.394531 C 48.964844 25.382812 48.964844 26.75 48.089844 26.738281 Z M 48.089844 26.738281 " fill-opacity="0.8" fill-rule="nonzero"/><path fill="#ffffff" d="M 48.089844 26.339844 C 47.734375 26.34375 47.734375 25.789062 48.089844 25.792969 C 48.445312 25.789062 48.445312 26.34375 48.089844 26.339844 Z M 48.089844 26.339844 " fill-opacity="1" fill-rule="nonzero"/><path fill="#0086ff" d="M 52.410156 17.789062 C 54.066406 17.796875 54.066406 20.304688 52.410156 20.3125 C 50.75 20.304688 50.75 17.796875 52.410156 17.789062 Z M 52.410156 17.789062 " fill-opacity="0.2" fill-rule="nonzero"/><path fill="#0086ff" d="M 52.410156 20.042969 C 51.105469 20.035156 51.105469 18.066406 52.410156 18.058594 C 53.714844 18.066406 53.714844 20.035156 52.410156 20.042969 Z M 52.410156 20.042969 " fill-opacity="0.4" fill-rule="nonzero"/><path fill="#0086ff" d="M 52.410156 19.773438 C 51.464844 19.785156 51.464844 18.316406 52.410156 18.328125 C 53.351562 18.316406 53.351562 19.785156 52.410156 19.773438 Z M 52.410156 19.773438 " fill-opacity="0.6" fill-rule="nonzero"/><path fill="#0086ff" d="M 52.410156 19.503906 C 51.816406 19.511719 51.816406 18.589844 52.410156 18.597656 C 53 18.589844 53 19.511719 52.410156 19.503906 Z M 52.410156 19.503906 " fill-opacity="0.8" fill-rule="nonzero"/><path fill="#ffffff" d="M 52.410156 19.234375 C 52.167969 19.238281 52.167969 18.863281 52.410156 18.867188 C 52.648438 18.863281 52.648438 19.238281 52.410156 19.234375 Z M 52.410156 19.234375 " fill-opacity="1" fill-rule="nonzero"/><path fill="#0086ff" d="M 52.410156 8.847656 C 54.601562 8.886719 54.601562 12.125 52.410156 12.164062 C 50.214844 12.125 50.21875 8.886719 52.410156 8.847656 Z M 52.410156 8.847656 " fill-opacity="0.2" fill-rule="nonzero"/><path fill="#0086ff" d="M 52.410156 11.808594 C 50.695312 11.800781 50.695312 9.210938 52.410156 9.203125 C 54.125 9.210938 54.121094 11.800781 52.410156 11.808594 Z M 52.410156 11.808594 " fill-opacity="0.4" fill-rule="nonzero"/><path fill="#0086ff" d="M 52.410156 11.457031 C 51.160156 11.449219 51.160156 9.5625 52.410156 9.554688 C 53.65625 9.5625 53.65625 11.449219 52.410156 11.457031 Z M 52.410156 11.457031 " fill-opacity="0.6" fill-rule="nonzero"/><path fill="#0086ff" d="M 52.410156 11.101562 C 51.632812 11.113281 51.632812 9.898438 52.410156 9.910156 C 53.1875 9.898438 53.1875 11.113281 52.410156 11.101562 Z M 52.410156 11.101562 " fill-opacity="0.8" fill-rule="nonzero"/><path fill="#ffffff" d="M 52.410156 10.746094 C 52.09375 10.75 52.09375 10.261719 52.410156 10.265625 C 52.722656 10.261719 52.722656 10.75 52.410156 10.746094 Z M 52.410156 10.746094 " fill-opacity="1" fill-rule="nonzero"/><path fill="#0086ff" d="M 52.863281 1.355469 C 54.082031 1.339844 54.082031 3.242188 52.863281 3.222656 C 51.644531 3.242188 51.644531 1.339844 52.863281 1.355469 Z M 52.863281 1.355469 " fill-opacity="0.2" fill-rule="nonzero"/><path fill="#0086ff" d="M 52.863281 3.023438 C 51.90625 3.039062 51.90625 1.542969 52.863281 1.558594 C 53.820312 1.542969 53.820312 3.039062 52.863281 3.023438 Z M 52.863281 3.023438 " fill-opacity="0.4" fill-rule="nonzero"/><path fill="#0086ff" d="M 52.863281 2.824219 C 52.167969 2.835938 52.167969 1.746094 52.863281 1.753906 C 53.5625 1.746094 53.5625 2.835938 52.863281 2.824219 Z M 52.863281 2.824219 " fill-opacity="0.6" fill-rule="nonzero"/><path fill="#0086ff" d="M 52.863281 2.625 C 52.425781 2.632812 52.425781 1.949219 52.863281 1.957031 C 53.300781 1.949219 53.300781 2.632812 52.863281 2.625 Z M 52.863281 2.625 " fill-opacity="0.8" fill-rule="nonzero"/><path fill="#ffffff" d="M 52.863281 2.425781 C 52.6875 2.429688 52.6875 2.152344 52.863281 2.15625 C 53.042969 2.152344 53.042969 2.429688 52.863281 2.425781 Z M 52.863281 2.425781 " fill-opacity="1" fill-rule="nonzero"/><path fill="#0086ff" d="M 32.832031 34.839844 C 34.917969 34.875 34.917969 37.960938 32.832031 37.996094 C 30.742188 37.960938 30.742188 34.875 32.832031 34.839844 Z M 32.832031 34.839844 " fill-opacity="0.2" fill-rule="nonzero"/><path fill="#0086ff" d="M 32.832031 37.660156 C 31.199219 37.648438 31.199219 35.183594 32.832031 35.175781 C 34.464844 35.183594 34.464844 37.648438 32.832031 37.660156 Z M 32.832031 37.660156 " fill-opacity="0.4" fill-rule="nonzero"/><path fill="#0086ff" d="M 32.832031 37.320312 C 31.652344 37.339844 31.652344 35.496094 32.832031 35.515625 C 34.011719 35.496094 34.011719 37.339844 32.832031 37.320312 Z M 32.832031 37.320312 " fill-opacity="0.6" fill-rule="nonzero"/><path fill="#0086ff" d="M 32.832031 36.984375 C 32.089844 36.992188 32.089844 35.839844 32.832031 35.851562 C 33.570312 35.839844 33.570312 36.996094 32.832031 36.984375 Z M 32.832031 36.984375 " fill-opacity="0.8" fill-rule="nonzero"/><path fill="#ffffff" d="M 32.832031 36.648438 C 32.53125 36.652344 32.53125 36.183594 32.832031 36.1875 C 33.128906 36.183594 33.128906 36.652344 32.832031 36.648438 Z M 32.832031 36.648438 " fill-opacity="1" fill-rule="nonzero"/><path fill="#0086ff" d="M 71.238281 25.171875 C 73.308594 25.207031 73.308594 28.269531 71.238281 28.300781 C 69.167969 28.269531 69.167969 25.207031 71.238281 25.171875 Z M 71.238281 25.171875 " fill-opacity="0.2" fill-rule="nonzero"/><path fill="#0086ff" d="M 71.238281 27.96875 C 69.617188 27.960938 69.617188 25.515625 71.238281 25.503906 C 72.859375 25.515625 72.859375 27.960938 71.238281 27.96875 Z M 71.238281 27.96875 " fill-opacity="0.4" fill-rule="nonzero"/><path fill="#0086ff" d="M 71.238281 27.632812 C 70.070312 27.648438 70.070312 25.824219 71.238281 25.839844 C 72.410156 25.824219 72.410156 27.648438 71.238281 27.632812 Z M 71.238281 27.632812 " fill-opacity="0.6" fill-rule="nonzero"/><path fill="#0086ff" d="M 71.238281 27.300781 C 70.503906 27.308594 70.507812 26.164062 71.238281 26.175781 C 71.972656 26.164062 71.972656 27.308594 71.238281 27.300781 Z M 71.238281 27.300781 " fill-opacity="0.8" fill-rule="nonzero"/><path fill="#ffffff" d="M 71.238281 26.964844 C 70.941406 26.96875 70.941406 26.503906 71.238281 26.507812 C 71.535156 26.503906 71.535156 26.96875 71.238281 26.964844 Z M 71.238281 26.964844 " fill-opacity="1" fill-rule="nonzero"/><path fill="#0086ff" d="M 68.039062 17.589844 C 69.257812 17.574219 69.257812 19.476562 68.039062 19.457031 C 66.820312 19.472656 66.820312 17.574219 68.039062 17.589844 Z M 68.039062 17.589844 " fill-opacity="0.2" fill-rule="nonzero"/><path fill="#0086ff" d="M 68.039062 19.257812 C 67.078125 19.269531 67.078125 17.777344 68.039062 17.789062 C 68.996094 17.777344 68.996094 19.269531 68.039062 19.257812 Z M 68.039062 19.257812 " fill-opacity="0.4" fill-rule="nonzero"/><path fill="#0086ff" d="M 68.039062 19.058594 C 67.339844 19.066406 67.339844 17.980469 68.039062 17.988281 C 68.734375 17.980469 68.734375 19.066406 68.039062 19.058594 Z M 68.039062 19.058594 " fill-opacity="0.6" fill-rule="nonzero"/><path fill="#0086ff" d="M 68.039062 18.859375 C 67.601562 18.863281 67.601562 18.183594 68.039062 18.1875 C 68.476562 18.183594 68.476562 18.863281 68.039062 18.859375 Z M 68.039062 18.859375 " fill-opacity="0.8" fill-rule="nonzero"/><path fill="#ffffff" d="M 68.039062 18.660156 C 67.859375 18.664062 67.859375 18.386719 68.039062 18.386719 C 68.214844 18.386719 68.214844 18.660156 68.039062 18.660156 Z M 68.039062 18.660156 " fill-opacity="1" fill-rule="nonzero"/><path fill="#0086ff" d="M 26.53125 13.210938 C 27.75 13.195312 27.75 15.09375 26.53125 15.078125 C 25.3125 15.09375 25.3125 13.191406 26.53125 13.210938 Z M 26.53125 13.210938 " fill-opacity="0.2" fill-rule="nonzero"/><path fill="#0086ff" d="M 26.53125 14.878906 C 25.574219 14.890625 25.574219 13.394531 26.53125 13.410156 C 27.488281 13.394531 27.488281 14.890625 26.53125 14.878906 Z M 26.53125 14.878906 " fill-opacity="0.4" fill-rule="nonzero"/><path fill="#0086ff" d="M 26.53125 14.679688 C 25.835938 14.6875 25.835938 13.601562 26.53125 13.609375 C 27.230469 13.601562 27.230469 14.6875 26.53125 14.679688 Z M 26.53125 14.679688 " fill-opacity="0.6" fill-rule="nonzero"/><path fill="#0086ff" d="M 26.53125 14.480469 C 26.09375 14.484375 26.09375 13.800781 26.53125 13.808594 C 26.96875 13.800781 26.96875 14.484375 26.53125 14.480469 Z M 26.53125 14.480469 " fill-opacity="0.8" fill-rule="nonzero"/><path fill="#ffffff" d="M 26.53125 14.277344 C 26.355469 14.28125 26.355469 14.007812 26.53125 14.007812 C 26.707031 14.003906 26.707031 14.28125 26.53125 14.277344 Z M 26.53125 14.277344 " fill-opacity="1" fill-rule="nonzero"/><path fill="#0086ff" d="M 59.003906 4.445312 C 61.234375 4.480469 61.234375 7.78125 59.003906 7.820312 C 56.769531 7.78125 56.769531 4.480469 59.003906 4.445312 Z M 59.003906 4.445312 " fill-opacity="0.2" fill-rule="nonzero"/><path fill="#0086ff" d="M 59.003906 7.460938 C 57.253906 7.449219 57.253906 4.8125 59.003906 4.804688 C 60.75 4.8125 60.75 7.449219 59.003906 7.460938 Z M 59.003906 7.460938 " fill-opacity="0.4" fill-rule="nonzero"/><path fill="#0086ff" d="M 59.003906 7.101562 C 57.730469 7.09375 57.730469 5.171875 59.003906 5.164062 C 60.273438 5.171875 60.273438 7.09375 59.003906 7.101562 Z M 59.003906 7.101562 " fill-opacity="0.6" fill-rule="nonzero"/><path fill="#0086ff" d="M 59.003906 6.738281 C 58.210938 6.75 58.210938 5.515625 59.003906 5.527344 C 59.792969 5.515625 59.792969 6.75 59.003906 6.738281 Z M 59.003906 6.738281 " fill-opacity="0.8" fill-rule="nonzero"/><path fill="#ffffff" d="M 59.003906 6.378906 C 58.679688 6.382812 58.679688 5.882812 59.003906 5.886719 C 59.324219 5.882812 59.324219 6.382812 59.003906 6.378906 Z M 59.003906 6.378906 " fill-opacity="1" fill-rule="nonzero"/><g clip-path="url(#a13c2f066f)"><path fill="#0086ff" d="M 32.722656 0.601562 C 34.953125 0.640625 34.953125 3.941406 32.722656 3.980469 C 30.488281 3.941406 30.488281 0.640625 32.722656 0.601562 Z M 32.722656 0.601562 " fill-opacity="0.2" fill-rule="nonzero"/><path fill="#0086ff" d="M 32.722656 3.617188 C 30.972656 3.609375 30.972656 0.972656 32.722656 0.964844 C 34.46875 0.972656 34.46875 3.609375 32.722656 3.617188 Z M 32.722656 3.617188 " fill-opacity="0.4" fill-rule="nonzero"/></g><path fill="#0086ff" d="M 32.722656 3.257812 C 31.449219 3.25 31.449219 1.328125 32.722656 1.324219 C 33.992188 1.328125 33.992188 3.25 32.722656 3.257812 Z M 32.722656 3.257812 " fill-opacity="0.6" fill-rule="nonzero"/><path fill="#0086ff" d="M 32.722656 2.898438 C 31.929688 2.910156 31.929688 1.671875 32.722656 1.6875 C 33.511719 1.675781 33.511719 2.910156 32.722656 2.898438 Z M 32.722656 2.898438 " fill-opacity="0.8" fill-rule="nonzero"/><path fill="#ffffff" d="M 32.722656 2.535156 C 32.398438 2.542969 32.398438 2.039062 32.722656 2.046875 C 33.042969 2.039062 33.042969 2.542969 32.722656 2.535156 Z M 32.722656 2.535156 " fill-opacity="1" fill-rule="nonzero"/><path fill="#0086ff" d="M 61.785156 31.578125 C 62.695312 31.5625 62.695312 32.988281 61.785156 32.972656 C 60.871094 32.988281 60.871094 31.5625 61.785156 31.578125 Z M 61.785156 31.578125 " fill-opacity="0.2" fill-rule="nonzero"/><path fill="#0086ff" d="M 61.785156 32.824219 C 61.066406 32.835938 61.066406 31.714844 61.785156 31.726562 C 62.5 31.714844 62.5 32.835938 61.785156 32.824219 Z M 61.785156 32.824219 " fill-opacity="0.4" fill-rule="nonzero"/><path fill="#0086ff" d="M 61.785156 32.675781 C 61.261719 32.683594 61.261719 31.867188 61.785156 31.875 C 62.304688 31.867188 62.304688 32.683594 61.785156 32.675781 Z M 61.785156 32.675781 " fill-opacity="0.6" fill-rule="nonzero"/><path fill="#0086ff" d="M 61.785156 32.527344 C 61.457031 32.53125 61.457031 32.019531 61.785156 32.023438 C 62.109375 32.019531 62.109375 32.53125 61.785156 32.527344 Z M 61.785156 32.527344 " fill-opacity="0.8" fill-rule="nonzero"/><path fill="#ffffff" d="M 61.785156 32.375 C 61.652344 32.378906 61.652344 32.171875 61.785156 32.171875 C 61.914062 32.171875 61.914062 32.378906 61.785156 32.375 Z M 61.785156 32.375 " fill-opacity="1" fill-rule="nonzero"/><path fill="#0086ff" d="M 50.152344 44.953125 C 51.6875 44.960938 51.6875 47.277344 50.152344 47.285156 C 48.621094 47.277344 48.621094 44.960938 50.152344 44.953125 Z M 50.152344 44.953125 " fill-opacity="0.2" fill-rule="nonzero"/><path fill="#0086ff" d="M 50.152344 47.035156 C 48.957031 47.050781 48.957031 45.183594 50.152344 45.203125 C 51.347656 45.183594 51.347656 47.050781 50.152344 47.035156 Z M 50.152344 47.035156 " fill-opacity="0.4" fill-rule="nonzero"/><path fill="#0086ff" d="M 50.152344 46.785156 C 49.28125 46.796875 49.28125 45.4375 50.152344 45.449219 C 51.023438 45.4375 51.023438 46.796875 50.152344 46.785156 Z M 50.152344 46.785156 " fill-opacity="0.6" fill-rule="nonzero"/><path fill="#0086ff" d="M 50.152344 46.535156 C 49.605469 46.542969 49.605469 45.691406 50.152344 45.699219 C 50.699219 45.691406 50.699219 46.542969 50.152344 46.535156 Z M 50.152344 46.535156 " fill-opacity="0.8" fill-rule="nonzero"/><path fill="#ffffff" d="M 50.152344 46.285156 C 49.929688 46.289062 49.929688 45.945312 50.152344 45.949219 C 50.375 45.945312 50.375 46.289062 50.152344 46.285156 Z M 50.152344 46.285156 " fill-opacity="1" fill-rule="nonzero"/><path fill="#0086ff" d="M 38.714844 23.03125 C 40.246094 23.035156 40.246094 25.351562 38.714844 25.359375 C 37.179688 25.355469 37.179688 23.035156 38.714844 23.03125 Z M 38.714844 23.03125 " fill-opacity="0.2" fill-rule="nonzero"/><path fill="#0086ff" d="M 38.714844 25.109375 C 37.519531 25.128906 37.519531 23.261719 38.714844 23.277344 C 39.910156 23.261719 39.910156 25.128906 38.714844 25.109375 Z M 38.714844 25.109375 " fill-opacity="0.4" fill-rule="nonzero"/><path fill="#0086ff" d="M 38.714844 24.863281 C 37.84375 24.875 37.84375 23.515625 38.714844 23.527344 C 39.585938 23.515625 39.585938 24.875 38.714844 24.863281 Z M 38.714844 24.863281 " fill-opacity="0.6" fill-rule="nonzero"/><path fill="#0086ff" d="M 38.714844 24.613281 C 38.167969 24.621094 38.167969 23.769531 38.714844 23.777344 C 39.261719 23.769531 39.261719 24.621094 38.714844 24.613281 Z M 38.714844 24.613281 " fill-opacity="0.8" fill-rule="nonzero"/><path fill="#ffffff" d="M 38.714844 24.363281 C 38.492188 24.367188 38.492188 24.023438 38.714844 24.027344 C 38.9375 24.023438 38.9375 24.367188 38.714844 24.363281 Z M 38.714844 24.363281 " fill-opacity="1" fill-rule="nonzero"/><path fill="#0086ff" d="M 46.304688 17.214844 C 47.03125 17.207031 47.03125 18.339844 46.304688 18.328125 C 45.578125 18.339844 45.578125 17.207031 46.304688 17.214844 Z M 46.304688 17.214844 " fill-opacity="0.2" fill-rule="nonzero"/><path fill="#0086ff" d="M 46.304688 18.210938 C 45.734375 18.21875 45.734375 17.328125 46.304688 17.335938 C 46.875 17.328125 46.875 18.21875 46.304688 18.210938 Z M 46.304688 18.210938 " fill-opacity="0.4" fill-rule="nonzero"/><path fill="#0086ff" d="M 46.304688 18.089844 C 45.890625 18.097656 45.890625 17.449219 46.304688 17.453125 C 46.722656 17.449219 46.722656 18.097656 46.304688 18.089844 Z M 46.304688 18.089844 " fill-opacity="0.6" fill-rule="nonzero"/><path fill="#0086ff" d="M 46.304688 17.972656 C 46.042969 17.976562 46.042969 17.570312 46.304688 17.574219 C 46.566406 17.570312 46.566406 17.976562 46.304688 17.972656 Z M 46.304688 17.972656 " fill-opacity="0.8" fill-rule="nonzero"/><path fill="#ffffff" d="M 46.304688 17.855469 C 46.199219 17.855469 46.199219 17.691406 46.304688 17.691406 C 46.410156 17.691406 46.410156 17.855469 46.304688 17.855469 Z M 46.304688 17.855469 " fill-opacity="1" fill-rule="nonzero"/><path fill="#0086ff" d="M 65.992188 25.226562 C 66.996094 25.210938 66.996094 26.785156 65.992188 26.769531 C 64.984375 26.785156 64.984375 25.210938 65.992188 25.226562 Z M 65.992188 25.226562 " fill-opacity="0.2" fill-rule="nonzero"/><path fill="#0086ff" d="M 65.992188 26.605469 C 65.199219 26.613281 65.199219 25.378906 65.992188 25.390625 C 66.78125 25.378906 66.78125 26.613281 65.992188 26.605469 Z M 65.992188 26.605469 " fill-opacity="0.4" fill-rule="nonzero"/><path fill="#0086ff" d="M 65.992188 26.4375 C 65.414062 26.445312 65.414062 25.546875 65.992188 25.554688 C 66.566406 25.546875 66.566406 26.445312 65.992188 26.4375 Z M 65.992188 26.4375 " fill-opacity="0.6" fill-rule="nonzero"/><path fill="#0086ff" d="M 65.992188 26.273438 C 65.628906 26.28125 65.628906 25.714844 65.992188 25.722656 C 66.351562 25.714844 66.351562 26.28125 65.992188 26.273438 Z M 65.992188 26.273438 " fill-opacity="0.8" fill-rule="nonzero"/><path fill="#ffffff" d="M 65.992188 26.109375 C 65.84375 26.113281 65.84375 25.882812 65.992188 25.886719 C 66.136719 25.882812 66.136719 26.113281 65.992188 26.109375 Z M 65.992188 26.109375 " fill-opacity="1" fill-rule="nonzero"/><path fill="#fe2860" d="M 49.515625 51.375 C 52.703125 51.429688 52.703125 56.136719 49.515625 56.191406 C 46.328125 56.136719 46.332031 51.429688 49.515625 51.375 Z M 49.515625 51.375 " fill-opacity="0.2" fill-rule="nonzero"/><path fill="#fe2860" d="M 49.515625 55.492188 C 47.253906 55.453125 47.253906 52.113281 49.515625 52.074219 C 51.777344 52.113281 51.777344 55.453125 49.515625 55.492188 Z M 49.515625 55.492188 " fill-opacity="0.4" fill-rule="nonzero"/><path fill="#fe2860" d="M 49.515625 54.792969 C 48.1875 54.789062 48.1875 52.777344 49.515625 52.769531 C 50.847656 52.777344 50.847656 54.785156 49.515625 54.792969 Z M 49.515625 54.792969 " fill-opacity="0.6" fill-rule="nonzero"/><path fill="#ffffff" d="M 49.515625 54.09375 C 49.109375 54.101562 49.109375 53.464844 49.515625 53.46875 C 49.925781 53.464844 49.925781 54.101562 49.515625 54.09375 Z M 49.515625 54.09375 " fill-opacity="1" fill-rule="nonzero"/><path fill="#fe2860" d="M 43.972656 48.285156 C 45.496094 48.292969 45.496094 50.597656 43.972656 50.605469 C 42.445312 50.597656 42.445312 48.292969 43.972656 48.285156 Z M 43.972656 48.285156 " fill-opacity="0.2" fill-rule="nonzero"/><path fill="#fe2860" d="M 43.972656 50.269531 C 42.898438 50.285156 42.898438 48.609375 43.972656 48.625 C 45.046875 48.609375 45.046875 50.285156 43.972656 50.269531 Z M 43.972656 50.269531 " fill-opacity="0.4" fill-rule="nonzero"/><path fill="#fe2860" d="M 43.972656 49.933594 C 43.335938 49.941406 43.335938 48.949219 43.972656 48.960938 C 44.605469 48.949219 44.605469 49.941406 43.972656 49.933594 Z M 43.972656 49.933594 " fill-opacity="0.6" fill-rule="nonzero"/><path fill="#ffffff" d="M 43.972656 49.597656 C 43.773438 49.597656 43.777344 49.292969 43.972656 49.292969 C 44.167969 49.292969 44.167969 49.597656 43.972656 49.597656 Z M 43.972656 49.597656 " fill-opacity="1" fill-rule="nonzero"/></svg>